<svg xmlns="http://www.w3.org/2000/svg" viewBox="0 0 262.85 291.48"><defs><style>.cls-1{fill:#172a88;}.cls-2{fill:#fff;}</style></defs><rect class="cls-1" width="262.85" height="259.36"/><path class="cls-2" d="M180.51,100.44a30.08,30.08,0,0,0,.57,6.81,2.78,2.78,0,0,0,3,2.27,3.71,3.71,0,0,0,2.83-1.42,3.59,3.59,0,0,1,2.56-1.41c1.15,0,1.71.71,1.71,2.13a4.93,4.93,0,0,1-1.28,2.77,23.26,23.26,0,0,1-3.06,3.19,21.19,21.19,0,0,1-3.83,2.7,7.94,7.94,0,0,1-3.78,1.13,8.31,8.31,0,0,1-6.12-2.4,17.93,17.93,0,0,1-4-7.26h-.85l-3,2.57a80,80,0,0,1-7,5.33,12.79,12.79,0,0,1-7.27,2.21,9.49,9.49,0,0,1-7.34-3.07c-1.86-2-2.78-4.85-2.78-8.45a20.32,20.32,0,0,1,1.56-8.24A20.84,20.84,0,0,1,147,92.83a41.19,41.19,0,0,1,7.19-5.47c2.82-1.7,5.92-3.4,9.35-5.1l3.57-1.86a2.48,2.48,0,0,0,1.34-1.2,7.49,7.49,0,0,0,.22-2.2V66.91a29.31,29.31,0,0,0-.93-8.66c-.61-1.81-2.15-2.7-4.62-2.7A7.28,7.28,0,0,0,157.28,58a28.3,28.3,0,0,0-4.14,7,28.25,28.25,0,0,1-3.5,6c-1.28,1.66-3.34,2.5-6.2,2.5a2.8,2.8,0,0,1-1.92-.71,2.42,2.42,0,0,1-.79-1.86,14.27,14.27,0,0,1,1.92-6.67,22.44,22.44,0,0,1,5.43-6.46,30.62,30.62,0,0,1,8.27-4.83,27.43,27.43,0,0,1,10.33-1.92A20.82,20.82,0,0,1,174,52.21a8.67,8.67,0,0,1,4.21,3.12,11.83,11.83,0,0,1,1.86,5.11,54.05,54.05,0,0,1,.42,7ZM168,84.38a3.56,3.56,0,0,0-1.42.56l-4.68,2.28q-8.4,4.26-8.39,14.22a11,11,0,0,0,1.49,6.25,4.58,4.58,0,0,0,3.91,2.12,7.1,7.1,0,0,0,3.41-.93,11.26,11.26,0,0,0,3.12-2.55,13.78,13.78,0,0,0,2.35-3.9,13.62,13.62,0,0,0,.93-5.12V86.09c0-1.15-.24-1.71-.72-1.71"/><path class="cls-2" d="M38.46,59.81c0,1.23.09,1.84.27,1.84s.67-.27,1.14-.84L41.3,59a20.32,20.32,0,0,1,6.39-5.61,15.53,15.53,0,0,1,7.67-2.05q8.52,0,13.28,5.82T73.4,73.74v31.8a18.09,18.09,0,0,0,.28,3.56,3,3,0,0,0,1.43,2,5.79,5.79,0,0,0,2,1.08c.56.14,1.07.28,1.49.42a2.29,2.29,0,0,1,1,.63,2.61,2.61,0,0,1,.35,1.57c0,1.33-.7,2-2.13,2a26.61,26.61,0,0,1-4.17-.44,39,39,0,0,0-6.13-.43,45.68,45.68,0,0,0-6.54.43,34.16,34.16,0,0,1-4.89.44c-1.71,0-2.56-.77-2.56-2.29a2,2,0,0,1,.43-1.42,2.12,2.12,0,0,1,1.13-.56l1.64-.29a8.07,8.07,0,0,0,1.92-.56,4.48,4.48,0,0,0,2.56-2.28,13.41,13.41,0,0,0,.42-3.84V76.86q0-17.2-11.3-17.2a11,11,0,0,0-8.51,3.7Q38.46,67,38.46,74.72v30.82a13.14,13.14,0,0,0,.41,3.56,4.57,4.57,0,0,0,3.7,3.06,9,9,0,0,1,1.78.28,3.15,3.15,0,0,1,1.27.63,2.22,2.22,0,0,1,.5,1.71c0,1.33-.8,2-2.41,2a30.59,30.59,0,0,1-4.25-.44,48.06,48.06,0,0,0-6.91-.43,47.76,47.76,0,0,0-6.89.43,31.7,31.7,0,0,1-4.55.44c-1.69,0-2.54-.77-2.54-2.29a1.72,1.72,0,0,1,.43-1.35,2.4,2.4,0,0,1,1.07-.48c.41-.09.93-.21,1.55-.29a12.53,12.53,0,0,0,2.06-.57c1.51-.57,2.4-1.3,2.62-2.2a16.94,16.94,0,0,0,.36-4.06V34.67c0-2.08-.33-3.56-1-4.42a5.67,5.67,0,0,0-2.13-1.77,11.81,11.81,0,0,0-2.13-.71,1.19,1.19,0,0,1-1-1.34c0-1.06.64-1.73,1.91-2.07s2.82-.83,4.62-1.49a34.15,34.15,0,0,0,7.24-3.47,7.9,7.9,0,0,1,3-1.64c.76,0,1.22.23,1.42.7a5.93,5.93,0,0,1,.27,2c0,1.31-.07,2.78-.2,4.38s-.21,3.37-.21,5.26Z"/><path class="cls-2" d="M119.5,52.05a21.52,21.52,0,0,1,5.17,2,13.23,13.23,0,0,1,3.56,2.78,5.15,5.15,0,0,1,1.35,3.42,26.61,26.61,0,0,1-1.06,8.44c-.72,2-1.65,3.07-2.78,3.07q-2,0-3.83-4.13c-.85-1.8-1.61-3.48-2.26-5a20.36,20.36,0,0,0-2.14-3.91A10.26,10.26,0,0,0,115,56.19a5.76,5.76,0,0,0-3.34-.92,9.08,9.08,0,0,0-5.25,1.91,17.36,17.36,0,0,0-4.84,5.5,34.46,34.46,0,0,0-3.48,8.7A45.21,45.21,0,0,0,96.76,83a43.49,43.49,0,0,0,1.49,11.87,27.68,27.68,0,0,0,4.13,8.83,18.53,18.53,0,0,0,6.17,5.52,16.41,16.41,0,0,0,7.82,1.89,12.48,12.48,0,0,0,4.9-.92,16.24,16.24,0,0,0,3.7-2.06,22.48,22.48,0,0,0,2.41-2.06c.62-.61,1.07-.92,1.35-.92a1.63,1.63,0,0,1,1.85,1.85,6.45,6.45,0,0,1-1.49,3.34,18.91,18.91,0,0,1-4.12,4,27.46,27.46,0,0,1-6.33,3.35,22.11,22.11,0,0,1-8,1.43,24,24,0,0,1-10.51-2.36A24.89,24.89,0,0,1,91.79,110a31.74,31.74,0,0,1-5.54-10.51,45.19,45.19,0,0,1-2-13.85,43.24,43.24,0,0,1,2.21-14.28,33,33,0,0,1,6-10.79,26.31,26.31,0,0,1,9.08-6.9,27.24,27.24,0,0,1,11.51-2.4,25.75,25.75,0,0,1,6.4.76"/><path class="cls-2" d="M210.9,104.84a8.54,8.54,0,0,1,0,10.79,5.45,5.45,0,0,1-8.66,0,8.51,8.51,0,0,1,0-10.79,5.45,5.45,0,0,1,8.66,0"/><path class="cls-1" d="M8.65,281.18c0,.23.13.34.37.34h6.5c.23,0,.34-.12.34-.36v-4.71a2.52,2.52,0,0,0-.09-.84c0-.15-.22-.27-.51-.35a1.77,1.77,0,0,0-.54-.08,2.67,2.67,0,0,1-.42,0,.77.77,0,0,1-.28-.09c-.07,0-.1-.13-.1-.27s.14-.37.42-.37a7.93,7.93,0,0,1,.92.11,13.65,13.65,0,0,0,1.92.1,13.4,13.4,0,0,0,1.91-.1,8.18,8.18,0,0,1,.92-.11c.28,0,.43.12.43.37a.27.27,0,0,1-.09.24.44.44,0,0,1-.26.09,2.15,2.15,0,0,1-.4,0,2.93,2.93,0,0,0-.48.07c-.36.07-.58.19-.65.35a2.75,2.75,0,0,0-.1.87v11.91c0,.28,0,.5,0,.68a1.65,1.65,0,0,0,.08.43.64.64,0,0,0,.22.27,1.26,1.26,0,0,0,.43.18,1.72,1.72,0,0,0,.48.08,2.25,2.25,0,0,1,.4,0,.54.54,0,0,1,.29.11.35.35,0,0,1,.11.3c0,.25-.21.37-.62.37-.18,0-.48,0-.92-.08a16.23,16.23,0,0,0-1.77-.08,16.64,16.64,0,0,0-1.79.08c-.45,0-.76.08-.93.08q-.63,0-.63-.42a.3.3,0,0,1,.1-.26.51.51,0,0,1,.26-.1,1.83,1.83,0,0,1,.35,0A1.92,1.92,0,0,0,15,290a1.94,1.94,0,0,0,.52-.18.63.63,0,0,0,.28-.28,1.24,1.24,0,0,0,.1-.44c0-.18,0-.41,0-.69V282.8c0-.25-.11-.37-.34-.37H9a.33.33,0,0,0-.37.37v5.56c0,.28,0,.5,0,.68a1.32,1.32,0,0,0,.08.43.67.67,0,0,0,.23.27,1.54,1.54,0,0,0,.44.18,1.85,1.85,0,0,0,.49.08,2.33,2.33,0,0,1,.4,0,.42.42,0,0,1,.27.11.38.38,0,0,1,.1.3c0,.25-.2.37-.6.37-.17,0-.48,0-.93-.08a16.64,16.64,0,0,0-1.79-.08,16.44,16.44,0,0,0-1.78.08c-.45,0-.76.08-.93.08q-.6,0-.6-.42a.3.3,0,0,1,.1-.26.47.47,0,0,1,.25-.1,2,2,0,0,1,.36,0,1.83,1.83,0,0,0,.4-.05,1.9,1.9,0,0,0,.53-.18.61.61,0,0,0,.27-.28,1.06,1.06,0,0,0,.1-.44c0-.18,0-.41,0-.69V276.45a2.44,2.44,0,0,0-.1-.84.79.79,0,0,0-.53-.35,1.79,1.79,0,0,0-.55-.08,2.54,2.54,0,0,1-.41,0,.9.9,0,0,1-.29-.09.31.31,0,0,1-.1-.27c0-.25.15-.37.43-.37a7.93,7.93,0,0,1,.92.11,13.49,13.49,0,0,0,1.91.1,13.65,13.65,0,0,0,1.92-.1,7.93,7.93,0,0,1,.92-.11c.28,0,.43.12.43.37a.27.27,0,0,1-.09.24.44.44,0,0,1-.26.09,2.25,2.25,0,0,1-.4,0,2.93,2.93,0,0,0-.48.07c-.37.07-.58.19-.65.35a2.75,2.75,0,0,0-.1.87Z"/><path class="cls-1" d="M33.08,274.62a8.09,8.09,0,0,1,2.55,1.82,8.82,8.82,0,0,1,1.73,2.74,9,9,0,0,1,.64,3.43,9.23,9.23,0,0,1-.63,3.44,8.56,8.56,0,0,1-1.73,2.75,8.12,8.12,0,0,1-2.57,1.84,7.61,7.61,0,0,1-3.13.66,7.39,7.39,0,0,1-3.09-.66,7.93,7.93,0,0,1-2.55-1.84,8.92,8.92,0,0,1-1.73-2.75,9.54,9.54,0,0,1,0-6.87,8.64,8.64,0,0,1,1.73-2.74,7.92,7.92,0,0,1,2.56-1.82A7.59,7.59,0,0,1,30,274,7.4,7.4,0,0,1,33.08,274.62Zm-5.21.57a4.78,4.78,0,0,0-1.58,1.47A7.84,7.84,0,0,0,25.23,279a12.16,12.16,0,0,0-.39,3.23,14.42,14.42,0,0,0,.4,3.51,8.46,8.46,0,0,0,1.12,2.61A5.07,5.07,0,0,0,28,290a4,4,0,0,0,4,.05,4.67,4.67,0,0,0,1.6-1.48,7.68,7.68,0,0,0,1.08-2.38,12.19,12.19,0,0,0,.38-3.23,13.22,13.22,0,0,0-.41-3.49,8.71,8.71,0,0,0-1.13-2.61,5.38,5.38,0,0,0-1.67-1.63,4.05,4.05,0,0,0-2.05-.56A4,4,0,0,0,27.87,275.19Z"/><path class="cls-1" d="M44,274.53a.61.61,0,0,1,.24,0c.07,0,.12.09.16.19l3.8,10.51c.08.21.15.31.2.31s.16-.1.23-.29L52.42,275a.85.85,0,0,1,.16-.33.42.42,0,0,1,.33-.11H56.6c.26,0,.4.11.4.33a.28.28,0,0,1-.13.27.8.8,0,0,1-.33.09l-.44,0a1.64,1.64,0,0,0-.51.12.63.63,0,0,0-.38.32,2.31,2.31,0,0,0-.07.71V277l.31,11.32a5.83,5.83,0,0,0,.1,1,.78.78,0,0,0,.53.5,1.86,1.86,0,0,0,.52.11l.44,0a.66.66,0,0,1,.3.09c.08.05.11.15.11.31a.33.33,0,0,1-.15.27.75.75,0,0,1-.45.12,8.19,8.19,0,0,1-1.1-.09,11,11,0,0,0-1.5-.09,13.21,13.21,0,0,0-1.65.09,9,9,0,0,1-1.1.09q-.57,0-.57-.42c0-.26.14-.39.43-.39a3.69,3.69,0,0,0,.84-.07.87.87,0,0,0,.46-.27.9.9,0,0,0,.19-.51c0-.2,0-.46,0-.77v-.6l-.2-9.56c0-.18,0-.28-.15-.28s-.11.09-.17.26l-4.2,11.7c-.1.26-.25.39-.46.39a.42.42,0,0,1-.46-.31L43,278.19c-.1-.22-.16-.33-.2-.33s-.15.16-.17.49l-.49,7.9c0,.3,0,.56,0,.81s0,.45,0,.64a5.05,5.05,0,0,0,.23,1.77,1,1,0,0,0,1.06.56l.17,0h.2c.36,0,.55.13.55.39s-.24.42-.72.42a7,7,0,0,1-.81-.06c-.34,0-.72-.05-1.16-.05s-.72,0-1,.05a5.74,5.74,0,0,1-.76.06c-.45,0-.68-.14-.68-.42a.35.35,0,0,1,.4-.39h.3l.21,0a.85.85,0,0,0,.6-.22,1.43,1.43,0,0,0,.35-.71,10,10,0,0,0,.17-1.28c0-.53.07-1.18.11-1.95l.49-8.83a1.36,1.36,0,0,1,0-.18,3,3,0,0,0,0-.34,2,2,0,0,0-.12-.83.83.83,0,0,0-.51-.36,2.32,2.32,0,0,0-.49-.09l-.4,0a.66.66,0,0,1-.27-.08c-.07,0-.1-.14-.1-.28s.13-.33.4-.33Z"/><path class="cls-1" d="M69.93,277.54c0,.44-.11.65-.32.65a.33.33,0,0,1-.3-.18,3.07,3.07,0,0,1-.21-.47,6.27,6.27,0,0,0-.32-.63,2.34,2.34,0,0,0-.57-.67,5.3,5.3,0,0,0-3.49-1,4.14,4.14,0,0,0-.89.07.89.89,0,0,0-.47.26,1,1,0,0,0-.2.48,5.5,5.5,0,0,0,0,.77v4.29a1.17,1.17,0,0,0,.05.43c0,.06.2.09.46.09h1.29a7.63,7.63,0,0,0,1.54-.14,2,2,0,0,0,.86-.33,1.46,1.46,0,0,0,.4-.53,2.35,2.35,0,0,0,.17-.51c0-.15.09-.28.13-.39a.3.3,0,0,1,.3-.15.32.32,0,0,1,.35.36c0,.33,0,.71-.07,1.15a12.43,12.43,0,0,0-.08,1.43c0,.6,0,1.09,0,1.47s0,.62,0,.74c0,.31-.11.46-.34.46a.29.29,0,0,1-.27-.14,1.18,1.18,0,0,1-.18-.39c0-.16-.11-.35-.18-.57a3.92,3.92,0,0,0-.35-.72,1.37,1.37,0,0,0-.91-.72,6.74,6.74,0,0,0-1.49-.13H63.63a.63.63,0,0,0-.41.09.51.51,0,0,0-.1.38v5.39a4.06,4.06,0,0,0,.08.88.93.93,0,0,0,.32.5,1.41,1.41,0,0,0,.63.23,5.79,5.79,0,0,0,1,.07c.44,0,.83,0,1.18-.05a4.26,4.26,0,0,0,1-.21,2.55,2.55,0,0,0,.78-.46,5.25,5.25,0,0,0,.68-.76,9.35,9.35,0,0,0,.77-1.27c.18-.35.38-.53.6-.53a.3.3,0,0,1,.19.09c.07.06.1.11.1.14,0,.18,0,.33-.06.47L70.07,290q0,.29-.06.45a.58.58,0,0,1-.11.25.4.4,0,0,1-.25.13l-.47,0c-.59,0-1.49,0-2.7-.1s-2.74-.09-4.59-.09c-.86,0-1.51,0-2,.06l-.85.06c-.42,0-.62-.14-.62-.42a.3.3,0,0,1,.34-.34,5.56,5.56,0,0,0,.89-.08c.41-.05.66-.2.74-.46a4.72,4.72,0,0,0,.11-1.15V276.45a3.12,3.12,0,0,0-.07-.83c0-.16-.2-.28-.47-.36a1.24,1.24,0,0,0-.46-.08,2.41,2.41,0,0,1-.4,0,.85.85,0,0,1-.27-.09c-.07,0-.1-.13-.1-.27s.16-.37.49-.37l1.23.05q1,.06,3,.06c1.68,0,3,0,3.92-.06l1.68-.05c.39,0,.61.06.69.18a1.17,1.17,0,0,1,.12.6v2.34Z"/><path class="cls-1" d="M72.83,279.19a8.5,8.5,0,0,1,4.58-4.57,8.54,8.54,0,0,1,3.36-.67,10.1,10.1,0,0,1,1.48.11,11.72,11.72,0,0,1,1.29.26,5.51,5.51,0,0,1,.95.32,2.71,2.71,0,0,1,.51.3,1.74,1.74,0,0,1,.26.82,12.84,12.84,0,0,1,.11,1.86c0,.31-.07.47-.23.47a.57.57,0,0,1-.41-.27c-.14-.19-.32-.44-.53-.77a6.68,6.68,0,0,0-1.6-1.77,3.25,3.25,0,0,0-1.95-.6,4.32,4.32,0,0,0-2.17.57,5.54,5.54,0,0,0-1.76,1.63,8.18,8.18,0,0,0-1.19,2.54,12.23,12.23,0,0,0-.43,3.31,10.8,10.8,0,0,0,.43,3.1,8.49,8.49,0,0,0,1.16,2.46,5.59,5.59,0,0,0,1.69,1.61,3.89,3.89,0,0,0,2,.57,3.69,3.69,0,0,0,2.24-.66,5.45,5.45,0,0,0,1.56-2l.54-1.09c.14-.26.29-.39.46-.39s.32.18.32.54c0,.11,0,.35,0,.72s0,.87,0,1.49a1.26,1.26,0,0,1-.36.85,3,3,0,0,1-1,.71,6.65,6.65,0,0,1-1.56.5,10.22,10.22,0,0,1-2,.18,8.23,8.23,0,0,1-6-2.52A8.52,8.52,0,0,1,72.79,286a9.21,9.21,0,0,1-.63-3.43A8.52,8.52,0,0,1,72.83,279.19Z"/><path class="cls-1" d="M91.84,288.36c0,.28,0,.5,0,.68a1.31,1.31,0,0,0,.09.43.6.6,0,0,0,.23.27,1.42,1.42,0,0,0,.44.18,1.73,1.73,0,0,0,.49.08,2.41,2.41,0,0,1,.4,0,.47.47,0,0,1,.27.11.38.38,0,0,1,.1.3c0,.25-.2.37-.6.37-.17,0-.48,0-.93-.08a20.07,20.07,0,0,0-3.58,0c-.45,0-.76.08-.93.08q-.6,0-.6-.42a.33.33,0,0,1,.1-.26.51.51,0,0,1,.26-.1,1.86,1.86,0,0,1,.36,0,1.9,1.9,0,0,0,.4-.05,2,2,0,0,0,.53-.18.66.66,0,0,0,.27-.28,1.06,1.06,0,0,0,.1-.44c0-.18,0-.41,0-.69V276.45a2.21,2.21,0,0,0-.1-.84.74.74,0,0,0-.53-.35,1.77,1.77,0,0,0-.54-.08,2.54,2.54,0,0,1-.41,0,.83.83,0,0,1-.29-.09c-.07,0-.1-.13-.1-.27s.14-.37.43-.37a7.84,7.84,0,0,1,.91.11,18.48,18.48,0,0,0,3.84,0,7.84,7.84,0,0,1,.91-.11c.29,0,.43.12.43.37a.3.3,0,0,1-.08.24.47.47,0,0,1-.26.09,2.35,2.35,0,0,1-.4,0,2.89,2.89,0,0,0-.49.07c-.36.07-.58.19-.64.35a2.48,2.48,0,0,0-.1.87Z"/><path class="cls-1" d="M99.16,274.42a.76.76,0,0,1,.27,0,1.08,1.08,0,0,1,.22.22L107.31,286l.06,0c.08,0,.12-.09.12-.29v-7.12c0-.36,0-.66,0-.87s0-.37,0-.46a10.38,10.38,0,0,0,0-1.11,1.21,1.21,0,0,0-.2-.64.7.7,0,0,0-.48-.29,5.52,5.52,0,0,0-.93-.06.58.58,0,0,1-.37-.11.3.3,0,0,1-.15-.26q0-.39.75-.39c.26,0,.55,0,.87,0s.68,0,1.1,0a10.28,10.28,0,0,0,1,0c.29,0,.53,0,.74,0q.63,0,.63.39a.32.32,0,0,1-.1.28.79.79,0,0,1-.38.06h-.29a.83.83,0,0,0-.91.65,8.52,8.52,0,0,0-.18,2.08v12.95a.78.78,0,0,1-.13.46.34.34,0,0,1-.3.19c-.17,0-.35-.14-.54-.41l-9.41-13.92-.06,0c-.07,0-.11.1-.11.29v10.1q0,.72,0,1.2a2.57,2.57,0,0,0,.15.78.81.81,0,0,0,.39.42,1.64,1.64,0,0,0,.69.12l.25,0h.26c.27,0,.4.14.4.42s-.25.39-.74.39a7.38,7.38,0,0,1-.89-.06c-.32,0-.68-.05-1.09-.05a9.55,9.55,0,0,0-1,.05,6.41,6.41,0,0,1-.85.06c-.45,0-.68-.13-.68-.39s.18-.42.54-.42h.26a1.46,1.46,0,0,0,.68-.14.84.84,0,0,0,.39-.47,2.69,2.69,0,0,0,.16-.86c0-.35,0-.78,0-1.28v-10.8a2.57,2.57,0,0,0-.09-.83.67.67,0,0,0-.49-.36,3.12,3.12,0,0,0-.91-.12c-.27,0-.4-.11-.4-.35s.13-.37.4-.37Z"/><path class="cls-1" d="M123,277.54c0,.44-.11.65-.32.65a.33.33,0,0,1-.3-.18,4.51,4.51,0,0,1-.21-.47,4.69,4.69,0,0,0-.32-.63,2.34,2.34,0,0,0-.57-.67,5.28,5.28,0,0,0-3.49-1,4,4,0,0,0-.88.07.89.89,0,0,0-.48.26,1,1,0,0,0-.2.48,5.5,5.5,0,0,0,0,.77v4.29a.93.93,0,0,0,.06.43c0,.06.19.09.46.09H118a7.81,7.81,0,0,0,1.55-.14,1.9,1.9,0,0,0,.85-.33,1.49,1.49,0,0,0,.41-.53,4.35,4.35,0,0,0,.17-.51,2.54,2.54,0,0,1,.13-.39q.06-.15.3-.15c.22,0,.34.12.34.36a10.19,10.19,0,0,1-.07,1.15,12.56,12.56,0,0,0-.07,1.43c0,.6,0,1.09,0,1.47s0,.62,0,.74c0,.31-.11.46-.34.46a.29.29,0,0,1-.27-.14,1,1,0,0,1-.17-.39c0-.16-.11-.35-.19-.57a4.56,4.56,0,0,0-.34-.72,1.41,1.41,0,0,0-.92-.72,6.74,6.74,0,0,0-1.49-.13h-1.25a.66.66,0,0,0-.42.09.51.51,0,0,0-.1.38v5.39a3.44,3.44,0,0,0,.09.88.86.86,0,0,0,.31.5,1.41,1.41,0,0,0,.63.23,5.86,5.86,0,0,0,1,.07c.44,0,.83,0,1.19-.05a4.29,4.29,0,0,0,1-.21,2.55,2.55,0,0,0,.78-.46,4.72,4.72,0,0,0,.68-.76,9.56,9.56,0,0,0,.78-1.27c.17-.35.37-.53.6-.53a.28.28,0,0,1,.18.09c.07.06.1.11.1.14,0,.18,0,.33,0,.47l-.32,2.53q0,.29-.06.45a.48.48,0,0,1-.11.25.41.41,0,0,1-.24.13l-.48,0c-.59,0-1.49,0-2.7-.1s-2.74-.09-4.59-.09c-.86,0-1.51,0-2,.06l-.84.06q-.63,0-.63-.42a.3.3,0,0,1,.34-.34,5.56,5.56,0,0,0,.89-.08c.42-.05.66-.2.74-.46a4.19,4.19,0,0,0,.12-1.15V276.45a3,3,0,0,0-.08-.83c0-.16-.2-.28-.47-.36a1.21,1.21,0,0,0-.46-.08,2.41,2.41,0,0,1-.4,0,.85.85,0,0,1-.27-.09c-.07,0-.1-.13-.1-.27s.16-.37.49-.37l1.23.05q1,.06,3,.06c1.68,0,3,0,3.92-.06l1.69-.05c.38,0,.61.06.68.18a1.17,1.17,0,0,1,.12.6v2.34Z"/><path class="cls-1" d="M129.57,274.53a.57.57,0,0,1,.24,0c.07,0,.12.09.16.19l3.8,10.51c.08.21.15.31.2.31s.16-.1.23-.29L138,275a.85.85,0,0,1,.16-.33.42.42,0,0,1,.33-.11h3.69c.26,0,.4.11.4.33a.28.28,0,0,1-.13.27.8.8,0,0,1-.33.09l-.44,0a1.52,1.52,0,0,0-.5.12.65.65,0,0,0-.39.32,2.31,2.31,0,0,0-.07.71V277l.31,11.32a5.83,5.83,0,0,0,.1,1,.78.78,0,0,0,.53.5,1.86,1.86,0,0,0,.52.11l.44,0a.66.66,0,0,1,.3.09.34.34,0,0,1,.12.31.34.34,0,0,1-.16.27.75.75,0,0,1-.45.12,8.19,8.19,0,0,1-1.1-.09,11,11,0,0,0-1.5-.09,12.93,12.93,0,0,0-1.64.09,9.3,9.3,0,0,1-1.11.09q-.57,0-.57-.42c0-.26.15-.39.43-.39a3.79,3.79,0,0,0,.85-.07.84.84,0,0,0,.45-.27.9.9,0,0,0,.19-.51c0-.2,0-.46,0-.77v-.6l-.2-9.56c0-.18-.05-.28-.15-.28s-.11.09-.17.26l-4.2,11.7c-.1.26-.25.39-.46.39a.42.42,0,0,1-.46-.31l-4.26-11.76c-.1-.22-.16-.33-.2-.33s-.15.16-.17.49l-.49,7.9c0,.3,0,.56,0,.81s0,.45,0,.64a5.1,5.1,0,0,0,.22,1.77,1,1,0,0,0,1.06.56l.17,0h.2c.37,0,.55.13.55.39s-.24.42-.72.42a7,7,0,0,1-.81-.06c-.34,0-.72-.05-1.16-.05s-.72,0-1,.05a5.74,5.74,0,0,1-.76.06c-.45,0-.68-.14-.68-.42a.35.35,0,0,1,.4-.39h.3l.21,0a.85.85,0,0,0,.6-.22,1.43,1.43,0,0,0,.35-.71,10,10,0,0,0,.17-1.28c0-.53.08-1.18.11-1.95l.49-8.83a1.36,1.36,0,0,1,0-.18,3,3,0,0,0,0-.34,2,2,0,0,0-.12-.83.8.8,0,0,0-.51-.36,2.21,2.21,0,0,0-.49-.09l-.4,0a.66.66,0,0,1-.27-.08c-.07,0-.1-.14-.1-.28s.13-.33.4-.33Z"/><path class="cls-1" d="M154.91,287.56a13.11,13.11,0,0,0,.58,1.45,2,2,0,0,0,.83.89,1.67,1.67,0,0,0,.72.29c.22,0,.33.12.33.28s-.2.36-.6.36a6.45,6.45,0,0,1-1-.08,11.72,11.72,0,0,0-1.44-.07c-.8,0-1.44,0-1.93.06s-.83.07-1,.07-.48-.11-.48-.32.19-.41.57-.41a2.29,2.29,0,0,0,.94-.13.51.51,0,0,0,.23-.5,4.76,4.76,0,0,0-.25-1.17L151.31,285c0-.13-.18-.2-.43-.2h-3.55a.35.35,0,0,0-.18.06.27.27,0,0,0-.13.17l-.69,2.32a10.38,10.38,0,0,0-.43,2,.65.65,0,0,0,.17.52,1.32,1.32,0,0,0,.58.18,4.47,4.47,0,0,1,.86.18.4.4,0,0,1,.28.39c0,.21-.16.31-.49.31a8.4,8.4,0,0,1-.94-.07,11.28,11.28,0,0,0-1.54-.08,9.05,9.05,0,0,0-1.11.06,5,5,0,0,1-.78.07c-.35,0-.52-.11-.52-.34a.26.26,0,0,1,.15-.27.85.85,0,0,1,.35-.09l.46-.06a.89.89,0,0,0,.47-.18,1.53,1.53,0,0,0,.6-.74,12.44,12.44,0,0,0,.43-1.18l4.55-13.42.19-.46a.29.29,0,0,1,.3-.17.4.4,0,0,1,.4.34,8.33,8.33,0,0,0,.28.89Zm-5.89-9c-.08,0-.13.07-.17.21l-1.34,4.6a.67.67,0,0,0,0,.18v.08c0,.11.06.16.2.16h2.86a.27.27,0,0,0,.17-.07.16.16,0,0,0,.08-.14,2.41,2.41,0,0,0,0-.26l-1.55-4.52C149.14,278.61,149.08,278.53,149,278.53Z"/><path class="cls-1" d="M171.36,280.61c-.15.09-.23.18-.23.26a.32.32,0,0,0,.09.21l3,3.9a.27.27,0,0,0,.2.11.26.26,0,0,0,.21-.14l.85-1.32a3.68,3.68,0,0,0,.69-1.56.46.46,0,0,0-.26-.46,1.72,1.72,0,0,0-.56-.15,4.11,4.11,0,0,1-.55-.11c-.17,0-.26-.13-.26-.27s.19-.36.57-.36a8.72,8.72,0,0,1,.9.07,12.88,12.88,0,0,0,1.68.08c.45,0,.83,0,1.13-.05l.61-.05c.25,0,.37.09.37.28a.25.25,0,0,1-.08.2,1.29,1.29,0,0,1-.26.12l-.39.11-.47.17a8.55,8.55,0,0,0-2.86,3l-.52.78a1.07,1.07,0,0,0-.17.39.39.39,0,0,0,.09.28l1.6,2.09a5.28,5.28,0,0,0,1.17,1.19,5.87,5.87,0,0,0,.93.52,4.85,4.85,0,0,0,.62.22c.15.05.23.13.23.25q0,.42-.6.42a9.65,9.65,0,0,1-1.1-.09,13.78,13.78,0,0,0-1.88-.1,10,10,0,0,0-1.56.1,7.67,7.67,0,0,1-1,.09.44.44,0,0,1-.29-.11.3.3,0,0,1-.13-.26.25.25,0,0,1,.17-.25,3.29,3.29,0,0,1,.37-.1,1.18,1.18,0,0,0,.37-.14.38.38,0,0,0,.17-.37.7.7,0,0,0-.17-.39l-.54-.75a.49.49,0,0,0-.13-.12.38.38,0,0,0-.13,0s-.13.07-.29.21l-.4.39a10.13,10.13,0,0,1-2.27,1.78,5.16,5.16,0,0,1-2.5.59,4,4,0,0,1-1.68-.35,4.19,4.19,0,0,1-2.18-2.41,4.78,4.78,0,0,1-.32-1.79,5.06,5.06,0,0,1,3.09-4.61l.89-.49c.21-.1.31-.22.31-.34a.82.82,0,0,0-.11-.31l-.4-.65a7.28,7.28,0,0,1-.68-1.33,4,4,0,0,1-.24-1.4,3.42,3.42,0,0,1,.31-1.42,3.64,3.64,0,0,1,.88-1.14,4.36,4.36,0,0,1,1.31-.77,4.69,4.69,0,0,1,1.65-.29,5.3,5.3,0,0,1,1.63.25,4,4,0,0,1,1.26.69,3.3,3.3,0,0,1,.8,1,2.84,2.84,0,0,1,.29,1.26,2.54,2.54,0,0,1-.65,1.74,6.49,6.49,0,0,1-2,1.41Zm-2.89,1.48a.46.46,0,0,0-.23.08l-.63.42a3.23,3.23,0,0,0-1.07,1.31,4.69,4.69,0,0,0-.41,2,3.84,3.84,0,0,0,.86,2.63,2.8,2.8,0,0,0,2.23,1,3.59,3.59,0,0,0,2.51-1.17l.66-.65a.41.41,0,0,0,.12-.32.76.76,0,0,0-.12-.28l-3.63-4.87A.34.34,0,0,0,168.47,282.09Zm3.69-3.47a2.35,2.35,0,0,0,.29-1.13,3.23,3.23,0,0,0-.6-2.07,1.81,1.81,0,0,0-1.43-.74,1.55,1.55,0,0,0-1.22.54,2.1,2.1,0,0,0-.47,1.44,3.47,3.47,0,0,0,.19,1.12,3.71,3.71,0,0,0,.58,1.09l.66.86a.49.49,0,0,0,.77.13l.46-.34A2.68,2.68,0,0,0,172.16,278.62Z"/><path class="cls-1" d="M197.85,287.56c.21.6.4,1.09.57,1.45a2.09,2.09,0,0,0,.83.89,1.71,1.71,0,0,0,.73.29c.22,0,.33.12.33.28s-.2.36-.6.36a6.35,6.35,0,0,1-1-.08,11.72,11.72,0,0,0-1.44-.07c-.8,0-1.45,0-1.93.06s-.83.07-1,.07-.49-.11-.49-.32.2-.41.58-.41a2.32,2.32,0,0,0,.94-.13.53.53,0,0,0,.23-.5,4.94,4.94,0,0,0-.26-1.17L194.25,285c0-.13-.18-.2-.43-.2h-3.55a.38.38,0,0,0-.19.06.26.26,0,0,0-.12.17l-.69,2.32a9.62,9.62,0,0,0-.43,2,.65.65,0,0,0,.17.52,1.31,1.31,0,0,0,.57.18,4.15,4.15,0,0,1,.86.18.39.39,0,0,1,.29.39c0,.21-.16.31-.49.31a8.4,8.4,0,0,1-.94-.07,11.44,11.44,0,0,0-1.55-.08,8.88,8.88,0,0,0-1.1.06,5,5,0,0,1-.79.07c-.34,0-.51-.11-.51-.34a.27.27,0,0,1,.14-.27,1,1,0,0,1,.36-.09l.46-.06a.89.89,0,0,0,.47-.18,1.53,1.53,0,0,0,.6-.74,12.44,12.44,0,0,0,.43-1.18l4.55-13.42c.08-.19.14-.34.18-.46a.31.31,0,0,1,.31-.17.4.4,0,0,1,.4.34,8.33,8.33,0,0,0,.28.89Zm-5.89-9c-.08,0-.14.07-.17.21l-1.35,4.6a.67.67,0,0,0,0,.18v.08c0,.11.07.16.2.16h2.86a.27.27,0,0,0,.18-.07.19.19,0,0,0,.08-.14,2.41,2.41,0,0,0,0-.26l-1.55-4.52C192.07,278.61,192,278.53,192,278.53Z"/><path class="cls-1" d="M204.63,285.53a11.77,11.77,0,0,0,.16,2.09,3.72,3.72,0,0,0,.57,1.51,2.57,2.57,0,0,0,1.13.92,4.69,4.69,0,0,0,1.86.31A4,4,0,0,0,211.7,289a3.43,3.43,0,0,0,.61-1.67,21.81,21.81,0,0,0,.1-2.31v-6.3c0-1,0-1.74-.07-2.27a1.51,1.51,0,0,0-.44-1.08,1.05,1.05,0,0,0-.46-.16l-.5-.05a2.2,2.2,0,0,1-.42-.09.26.26,0,0,1-.17-.27c0-.25.16-.37.49-.37l.73,0c.31,0,.72,0,1.21,0s.94,0,1.26,0l.72,0c.4,0,.6.12.6.37a.3.3,0,0,1-.2.3,2.46,2.46,0,0,1-.63.06,1.15,1.15,0,0,0-.7.18,1.12,1.12,0,0,0-.37.59,4.12,4.12,0,0,0-.16,1.08c0,.45,0,1,0,1.64V285c0,.91,0,1.7-.1,2.4a4.29,4.29,0,0,1-.67,1.92,3.85,3.85,0,0,1-1.78,1.44,7.05,7.05,0,0,1-2.83.51,9.26,9.26,0,0,1-3.06-.44,4.16,4.16,0,0,1-2-1.43,3.5,3.5,0,0,1-.7-1.71,15.27,15.27,0,0,1-.13-2.14v-9.13a2.63,2.63,0,0,0-.09-.86q-.09-.21-.54-.33a2.23,2.23,0,0,0-.53-.1l-.42,0a.66.66,0,0,1-.27-.08c-.07,0-.1-.13-.1-.27s.15-.37.43-.37a8.18,8.18,0,0,1,.92.11,13.4,13.4,0,0,0,1.91.1,13.65,13.65,0,0,0,1.92-.1,7.93,7.93,0,0,1,.92-.11c.28,0,.42.12.42.37s0,.23-.11.28a.56.56,0,0,1-.3.09l-.44,0a1.44,1.44,0,0,0-.49.08.76.76,0,0,0-.53.35,2.21,2.21,0,0,0-.1.84Z"/><path class="cls-1" d="M218.22,276.27a1.3,1.3,0,0,0-.12-.63.51.51,0,0,0-.48-.2,1.48,1.48,0,0,0-.57.11,1.27,1.27,0,0,1-.52.12c-.21,0-.31-.13-.31-.39s.58-.63,1.74-.84a28.72,28.72,0,0,1,5-.33,10.39,10.39,0,0,1,3.67.62,7.94,7.94,0,0,1,2.79,1.75,7.53,7.53,0,0,1,1.76,2.69,9.39,9.39,0,0,1,.62,3.44,9.62,9.62,0,0,1-.59,3.44,6.86,6.86,0,0,1-1.73,2.6,7.89,7.89,0,0,1-2.79,1.65,11.3,11.3,0,0,1-3.79.58,14.43,14.43,0,0,1-2-.13,13.25,13.25,0,0,0-1.67-.13,7.31,7.31,0,0,0-1.26.1,7.7,7.7,0,0,1-1.14.09q-.6,0-.6-.42a.3.3,0,0,1,.1-.26.47.47,0,0,1,.25-.1,2,2,0,0,1,.36,0,1.75,1.75,0,0,0,.4-.05,1.9,1.9,0,0,0,.53-.18.56.56,0,0,0,.27-.28,1.06,1.06,0,0,0,.1-.44c0-.18,0-.41,0-.69Zm3,13.25a2,2,0,0,0,1.67.56,5.62,5.62,0,0,0,2.49-.54,5.32,5.32,0,0,0,1.9-1.5,7,7,0,0,0,1.22-2.38,11.12,11.12,0,0,0,.43-3.18,10.46,10.46,0,0,0-.43-3,7.94,7.94,0,0,0-1.2-2.4,5.46,5.46,0,0,0-1.86-1.57,5.11,5.11,0,0,0-2.4-.56,6.07,6.07,0,0,0-1.18.09,1.68,1.68,0,0,0-.66.27.85.85,0,0,0-.3.46,3,3,0,0,0-.07.66v11.21A3.47,3.47,0,0,0,221.18,289.52Z"/><path class="cls-1" d="M237.81,288.36c0,.28,0,.5,0,.68a1.65,1.65,0,0,0,.08.43.67.67,0,0,0,.23.27,1.5,1.5,0,0,0,.45.18,1.72,1.72,0,0,0,.48.08,2.33,2.33,0,0,1,.4,0,.42.42,0,0,1,.27.11.38.38,0,0,1,.1.3c0,.25-.2.37-.6.37-.17,0-.48,0-.93-.08a16.44,16.44,0,0,0-1.78-.08,16.64,16.64,0,0,0-1.79.08c-.45,0-.76.08-.93.08q-.6,0-.6-.42a.3.3,0,0,1,.1-.26.47.47,0,0,1,.25-.1,2,2,0,0,1,.36,0,1.75,1.75,0,0,0,.4-.05,1.9,1.9,0,0,0,.53-.18.56.56,0,0,0,.27-.28,1.06,1.06,0,0,0,.1-.44c0-.18,0-.41,0-.69V276.45a2.44,2.44,0,0,0-.1-.84.79.79,0,0,0-.53-.35,1.77,1.77,0,0,0-.54-.08,2.58,2.58,0,0,1-.42,0,.9.9,0,0,1-.29-.09.31.31,0,0,1-.1-.27c0-.25.15-.37.43-.37a7.93,7.93,0,0,1,.92.11,13.65,13.65,0,0,0,1.92.1,13.49,13.49,0,0,0,1.91-.1,7.93,7.93,0,0,1,.92-.11c.28,0,.43.12.43.37a.27.27,0,0,1-.09.24.44.44,0,0,1-.26.09,2.15,2.15,0,0,1-.4,0,2.93,2.93,0,0,0-.48.07c-.37.07-.58.19-.65.35a2.75,2.75,0,0,0-.1.87Z"/><path class="cls-1" d="M252.43,274.62a8.09,8.09,0,0,1,2.55,1.82,8.82,8.82,0,0,1,1.73,2.74,9,9,0,0,1,.64,3.43,9.23,9.23,0,0,1-.63,3.44A8.74,8.74,0,0,1,255,288.8a8.12,8.12,0,0,1-2.57,1.84,7.62,7.62,0,0,1-3.14.66,7.46,7.46,0,0,1-3.09-.66,8,8,0,0,1-2.54-1.84,8.92,8.92,0,0,1-1.73-2.75,9.4,9.4,0,0,1,0-6.87,8.64,8.64,0,0,1,1.73-2.74,7.92,7.92,0,0,1,2.56-1.82,7.55,7.55,0,0,1,3.13-.67A7.4,7.4,0,0,1,252.43,274.62Zm-5.21.57a4.69,4.69,0,0,0-1.58,1.47,7.84,7.84,0,0,0-1.06,2.37,12.16,12.16,0,0,0-.39,3.23,13.94,13.94,0,0,0,.4,3.51,8.46,8.46,0,0,0,1.12,2.61,5,5,0,0,0,1.67,1.63,4,4,0,0,0,4,.05,4.67,4.67,0,0,0,1.6-1.48,7.68,7.68,0,0,0,1.08-2.38,12.61,12.61,0,0,0,.38-3.23,13.65,13.65,0,0,0-.41-3.49,9,9,0,0,0-1.13-2.61,5.3,5.3,0,0,0-1.68-1.63,4,4,0,0,0-2-.56A3.94,3.94,0,0,0,247.22,275.19Z"/></svg>